<mxfile host="app.diagrams.net" modified="2023-09-15T08:52:54.764Z" agent="Mozilla/5.0 (Macintosh; Intel Mac OS X 10_15_7) AppleWebKit/537.36 (KHTML, like Gecko) Chrome/114.0.0.0 Safari/537.36" version="21.6.9" etag="9l2P4lIqo6jaVP5B9v27" type="github">
  <diagram name="Page-1" id="efq0S3KmOIFP_rS1L8Ab">
    <mxGraphModel>
      <root>
        <mxCell id="0" />
        <mxCell id="1" parent="0" />
      </root>
    </mxGraphModel>
  </diagram>
</mxfile>
